<?xml version="1.0" encoding="UTF-8" standalone="no"?>
<svg
   xmlns:dc="http://purl.org/dc/elements/1.1/"
   xmlns:cc="http://creativecommons.org/ns#"
   xmlns:rdf="http://www.w3.org/1999/02/22-rdf-syntax-ns#"
   xmlns:svg="http://www.w3.org/2000/svg"
   xmlns="http://www.w3.org/2000/svg"
   xmlns:sodipodi="http://sodipodi.sourceforge.net/DTD/sodipodi-0.dtd"
   xmlns:inkscape="http://www.inkscape.org/namespaces/inkscape"
   version="1.1"
   id="svg2"
   xml:space="preserve"
   width="682.66669"
   height="682.66669"
   viewBox="0 0 682.66669 682.66669"
   sodipodi:docname="bandcamp.svg"
   inkscape:version="0.92.1 r15371"><metadata
     id="metadata8"><rdf:RDF><cc:Work
         rdf:about=""><dc:format>image/svg+xml</dc:format><dc:type
           rdf:resource="http://purl.org/dc/dcmitype/StillImage" /></cc:Work></rdf:RDF></metadata><defs
     id="defs6"><clipPath
       clipPathUnits="userSpaceOnUse"
       id="clipPath22"><path
         d="m 3208.57,2725.96 c -183.49,0 -277.25,-144.42 -277.25,-362 0,-205.66 101.38,-360.04 277.25,-360.04 198.89,0 273.45,182.02 273.45,360.04 -0.14,185.9 -93.84,362 -273.51,362 M 2721,3265.92 h 217.97 v -522.15 h 3.85 c 59.28,98.87 183.55,160.21 294.46,160.21 311.63,0 462.74,-245.35 462.74,-544.05 0,-274.84 -133.84,-533.97 -426.43,-533.97 -133.85,0 -277.25,33.54 -342.29,168.09 h -3.78 v -140.51 h -206.53 v 1412.35 l 0.01,0.03"
         clip-rule="evenodd"
         id="path20" /></clipPath><clipPath
       clipPathUnits="userSpaceOnUse"
       id="clipPath28"><path
         d="M 0,0 H 5120 V 5120 H 0 Z"
         id="path26" /></clipPath><clipPath
       clipPathUnits="userSpaceOnUse"
       id="clipPath38"><path
         d="m 4503.89,2534.02 c -17.22,124.62 -105.15,191.92 -225.61,191.92 -112.87,0 -271.54,-61.35 -271.54,-371.91 0,-170.13 72.64,-350.15 261.97,-350.15 126.18,0 214.11,87.14 235.18,233.51 h 217.97 c -40.16,-265.06 -198.84,-411.43 -453.15,-411.43 -309.78,0 -479.95,227.42 -479.95,528.07 0,308.56 162.53,549.89 487.6,549.89 229.44,0 424.54,-118.68 445.5,-369.91 h -217.61 l -0.36,0.01"
         clip-rule="evenodd"
         id="path36" /></clipPath><clipPath
       clipPathUnits="userSpaceOnUse"
       id="clipPath44"><path
         d="M 0,0 H 5120 V 5120 H 0 Z"
         id="path42" /></clipPath><clipPath
       clipPathUnits="userSpaceOnUse"
       id="clipPath54"><path
         d="M 1958.95,1856.62 H 324.078 l 763.462,1409.3 h 1634.88 l -763.47,-1409.3"
         clip-rule="evenodd"
         id="path52" /></clipPath><clipPath
       clipPathUnits="userSpaceOnUse"
       id="clipPath60"><path
         d="M 0,0 H 5120 V 5120 H 0 Z"
         id="path58" /></clipPath></defs><sodipodi:namedview
     pagecolor="#ffffff"
     bordercolor="#666666"
     borderopacity="1"
     objecttolerance="10"
     gridtolerance="10"
     guidetolerance="10"
     inkscape:pageopacity="0"
     inkscape:pageshadow="2"
     inkscape:window-width="1920"
     inkscape:window-height="1017"
     id="namedview4"
     showgrid="false"
     inkscape:zoom="0.34570311"
     inkscape:cx="341.33334"
     inkscape:cy="341.33334"
     inkscape:window-x="1912"
     inkscape:window-y="-8"
     inkscape:window-maximized="1"
     inkscape:current-layer="g10" /><g
     id="g10"
     inkscape:groupmode="layer"
     inkscape:label="ink_ext_XXXXXX"
     transform="matrix(1.3333333,0,0,-1.3333333,0,682.66667)"><g
       id="g12"
       transform="matrix(0.07173842,0,0,0.07173842,72.349637,72.349637)"><path
         d="M -50,-50 H 5170 V 5170 H -50 Z"
         style="fill:#000000;fill-opacity:1;fill-rule:nonzero;stroke:none"
         id="path14"
         inkscape:connector-curvature="0" /><g
         id="g16"><g
           id="g18"
           clip-path="url(#clipPath22)"><g
             id="g24"
             clip-path="url(#clipPath28)"><path
               d="M 2670.99,1775.96 H 3750.02 V 3315.92 H 2670.99 Z"
               style="fill:#ffffff;fill-opacity:1;fill-rule:nonzero;stroke:none"
               id="path30"
               inkscape:connector-curvature="0" /></g></g></g><g
         id="g32"><g
           id="g34"
           clip-path="url(#clipPath38)"><g
             id="g40"
             clip-path="url(#clipPath44)"><path
               d="m 3738.76,1775.96 h 1033.1 v 1177.96 h -1033.1 z"
               style="fill:#ffffff;fill-opacity:1;fill-rule:nonzero;stroke:none"
               id="path46"
               inkscape:connector-curvature="0" /></g></g></g><g
         id="g48"><g
           id="g50"
           clip-path="url(#clipPath54)"><g
             id="g56"
             clip-path="url(#clipPath60)"><path
               d="m 274.078,1806.62 h 2498.34 v 1509.3 H 274.078 Z"
               style="fill:#ffffff;fill-opacity:1;fill-rule:nonzero;stroke:none"
               id="path62"
               inkscape:connector-curvature="0" /></g></g></g></g></g></svg>