<svg fill="#000000" xmlns="http://www.w3.org/2000/svg"  viewBox="0 0 50 50" width="50px" height="50px"><path d="M 39 14 L 39 16 L 47 16 L 47 14 Z M 21 17 L 21 19 L 29 19 L 29 17 Z M 39 17 L 39 19 L 47 19 L 47 17 Z M 21 20 L 21 22 L 29 22 L 29 20 Z M 39 20 L 39 22 L 47 22 L 47 20 Z M 3 23 L 3 25 L 11 25 L 11 23 Z M 21 23 L 21 25 L 29 25 L 29 23 Z M 30 23 L 30 25 L 38 25 L 38 23 Z M 39 23 L 39 25 L 47 25 L 47 23 Z M 3 26 L 3 28 L 11 28 L 11 26 Z M 21 26 L 21 28 L 29 28 L 29 26 Z M 30 26 L 30 28 L 38 28 L 38 26 Z M 39 26 L 39 28 L 47 28 L 47 26 Z M 3 29 L 3 31 L 11 31 L 11 29 Z M 12 29 L 12 31 L 20 31 L 20 29 Z M 21 29 L 21 31 L 29 31 L 29 29 Z M 30 29 L 30 31 L 38 31 L 38 29 Z M 39 29 L 39 31 L 47 31 L 47 29 Z M 3 32 L 3 34 L 11 34 L 11 32 Z M 12 32 L 12 34 L 20 34 L 20 32 Z M 21 32 L 21 34 L 29 34 L 29 32 Z M 30 32 L 30 34 L 38 34 L 38 32 Z M 39 32 L 39 34 L 47 34 L 47 32 Z M 3 35 L 3 37 L 11 37 L 11 35 Z M 12 35 L 12 37 L 20 37 L 20 35 Z M 21 35 L 21 37 L 29 37 L 29 35 Z M 30 35 L 30 37 L 38 37 L 38 35 Z M 39 35 L 39 37 L 47 37 L 47 35 Z"/></svg>