<?xml version="1.0" encoding="UTF-8" standalone="no"?>
<!-- Generator: Adobe Illustrator 19.1.0, SVG Export Plug-In . SVG Version: 6.00 Build 0)  -->

<svg
   xmlns:dc="http://purl.org/dc/elements/1.1/"
   xmlns:cc="http://creativecommons.org/ns#"
   xmlns:rdf="http://www.w3.org/1999/02/22-rdf-syntax-ns#"
   xmlns:svg="http://www.w3.org/2000/svg"
   xmlns="http://www.w3.org/2000/svg"
   xmlns:sodipodi="http://sodipodi.sourceforge.net/DTD/sodipodi-0.dtd"
   xmlns:inkscape="http://www.inkscape.org/namespaces/inkscape"
   version="1.1"
   id="Layer_1"
   x="0px"
   y="0px"
   viewBox="0 0 108.4 108.5"
   style="enable-background:new 0 0 108.4 108.5;"
   xml:space="preserve"
   sodipodi:docname="discogs.svg"
   inkscape:version="0.92.1 r15371"><metadata
   id="metadata43"><rdf:RDF><cc:Work
       rdf:about=""><dc:format>image/svg+xml</dc:format><dc:type
         rdf:resource="http://purl.org/dc/dcmitype/StillImage" /></cc:Work></rdf:RDF></metadata><defs
   id="defs41" /><sodipodi:namedview
   pagecolor="#ffffff"
   bordercolor="#666666"
   borderopacity="1"
   objecttolerance="10"
   gridtolerance="10"
   guidetolerance="10"
   inkscape:pageopacity="0"
   inkscape:pageshadow="2"
   inkscape:window-width="1920"
   inkscape:window-height="1017"
   id="namedview39"
   showgrid="false"
   inkscape:zoom="2.1751152"
   inkscape:cx="54.200001"
   inkscape:cy="54.25"
   inkscape:window-x="1912"
   inkscape:window-y="-8"
   inkscape:window-maximized="1"
   inkscape:current-layer="Layer_1" />
<style
   type="text/css"
   id="style2">
	.st0{fill:#231F20;}
</style>
<path
   class="st0"
   d="m 54.2,9.2779661 c -0.166102,0 -0.249153,0 -0.415254,-0.083051 0.166101,0.083051 0.332203,0.083051 0.415254,0.083051 z"
   id="path4"
   inkscape:connector-curvature="0"
   style="fill:#231f20;stroke-width:0.83050847" />
<g
   id="g10"
   transform="matrix(0.83050847,0,0,0.83050847,9.1864407,9.1949153)">
	<path
   d="m 34.3,54.2 c 0,-11.1 9,-20.1 20.1,-20.1 3.7,0 7.1,1 10,2.7 l 4,-7.2 c -4.1,-2.4 -8.9,-3.7 -14,-3.7 -7.8,0 -14.9,3.2 -20,8.3 -5.1,5.1 -8.3,12.2 -8.3,20 0,7.8 3.1,14.9 8.3,20 0.1,0.1 0.3,0.3 0.4,0.4 l 5.6,-6 c 0,0 0,0 0.1,0.1 C 36.6,65 34.3,59.9 34.3,54.2 Z"
   id="path6"
   inkscape:connector-curvature="0" />
	<path
   d="m 74.4,34.4 -5.6,6 c 3.4,3.6 5.5,8.5 5.5,13.8 0,11.1 -9,20.1 -20,20.1 -3.4,0 -6.5,-0.8 -9.3,-2.3 v 0 l -4,7.2 c 4,2.1 8.5,3.3 13.3,3.3 7.8,0 14.9,-3.2 20,-8.3 5.1,-5.1 8.3,-12.2 8.3,-20 0,-7.7 -3.1,-14.7 -8.2,-19.8 z"
   id="path8"
   inkscape:connector-curvature="0" />
</g>
<path
   d="m 41.49322,54.208475 c 0,-7.059322 5.730509,-12.789831 12.789831,-12.789831 v 0 c 7.059322,0 12.78983,5.730509 12.78983,12.789831 v 0 c 0,7.059322 -5.730508,12.78983 -12.78983,12.78983 v 0 c -7.059322,0 -12.789831,-5.730508 -12.789831,-12.78983 z m 0.581356,0 c 0,6.727118 5.481356,12.208474 12.208475,12.208474 v 0 c 6.727118,0 12.208474,-5.481356 12.208474,-12.208474 v 0 C 66.491525,47.481356 61.010169,42 54.283051,42 v 0 c -6.727119,0 -12.208475,5.481356 -12.208475,12.208475 z"
   id="path12"
   inkscape:connector-curvature="0"
   style="stroke-width:0.83050847" />
<path
   d="m 56.276271,54.208475 c 0,1.079661 -0.913559,1.99322 -1.99322,1.99322 -1.079661,0 -1.99322,-0.913559 -1.99322,-1.99322 0,-1.079661 0.913559,-1.993221 1.99322,-1.993221 1.162712,0 1.99322,0.91356 1.99322,1.993221 z"
   id="path14"
   inkscape:connector-curvature="0"
   style="stroke-width:0.83050847" />
<g
   id="g20"
   transform="matrix(0.83050847,0,0,0.83050847,9.1864407,9.1949153)">
	<path
   d="m 28.8,81.1 5.7,-6.2 c -5.4,-5.2 -8.8,-12.5 -8.8,-20.7 0,-15.9 12.8,-28.7 28.7,-28.7 5.2,0 10,1.4 14.2,3.8 l 4,-7.4 C 67.2,18.9 61,17.1 54.4,17.1 44.2,17.1 34.9,21.3 28.2,28 21.5,34.7 17.3,44 17.3,54.2 c 0,10.2 4.1,19.5 10.9,26.2 0.1,0.2 0.3,0.5 0.6,0.7 z"
   id="path16"
   inkscape:connector-curvature="0" />
	<path
   d="m 80.5,28 c 0,0 0,-0.1 0,0 l -5.8,6.1 C 79.8,39.3 83,46.4 83,54.2 83,70 70.2,82.9 54.3,82.9 c -4.9,0 -9.5,-1.2 -13.5,-3.4 l -4.1,7.3 c 5.3,2.9 11.3,4.5 17.7,4.5 10.2,0 19.5,-4.2 26.2,-10.9 6.7,-6.7 10.9,-16 10.9,-26.2 C 91.4,44 87.2,34.7 80.5,28 Z"
   id="path18"
   inkscape:connector-curvature="0" />
</g>
<g
   id="g26"
   transform="matrix(0.83050847,0,0,0.83050847,9.1864407,9.1949153)">
	<path
   d="m 86.8,21.7 c -0.1,-0.1 -0.2,-0.2 -0.3,-0.3 l -5.7,6.2 c 6.8,6.8 11.1,16.2 11.1,26.6 0,20.7 -16.8,37.5 -37.5,37.5 -6.5,0 -12.6,-1.6 -17.9,-4.5 l -4.1,7.3 c 6.5,3.6 14,5.6 22,5.6 12.7,0 24.2,-5.1 32.5,-13.5 8.3,-8.3 13.4,-19.8 13.4,-32.5 C 100.2,41.5 95.1,30 86.8,21.7 Z"
   id="path22"
   inkscape:connector-curvature="0" />
	<path
   d="m 22.7,87.6 5.7,-6.2 C 21.2,74.6 16.7,64.9 16.7,54.2 c 0,-20.7 16.8,-37.5 37.5,-37.5 6.7,0 13,1.8 18.4,4.8 l 4,-7.4 C 70,10.4 62.3,8.2 54.1,8.2 41.4,8.2 29.9,13.3 21.6,21.7 13.5,30 8.4,41.5 8.4,54.2 c 0,12.7 5.2,24.2 13.5,32.5 0.2,0.3 0.5,0.6 0.8,0.9 z"
   id="path24"
   inkscape:connector-curvature="0" />
</g>
<g
   id="g34"
   transform="matrix(0.83050847,0,0,0.83050847,9.1864407,9.1949153)">
	<path
   class="st0"
   d="M 17.1,93.7"
   id="path28"
   inkscape:connector-curvature="0"
   style="fill:#231f20" />
	<path
   class="st0"
   d="M 28.2,101.8"
   id="path30"
   inkscape:connector-curvature="0"
   style="fill:#231f20" />
	<path
   d="m 92,15.5 -5.2,5.6 c 8.6,8.4 13.9,20.1 13.9,33.1 0,25.6 -20.8,46.4 -46.4,46.4 -8.1,0 -15.6,-2.1 -22.2,-5.7 l -3.9,6.9 c 7.7,4.2 16.6,6.7 26,6.7 29.9,0 54.2,-24.3 54.2,-54.2 0,-15.2 -6.3,-29 -16.4,-38.8 z"
   id="path32"
   inkscape:connector-curvature="0" />
</g>
<path
   d="M 54.947458,9.2779661 H 54.2 c -24.666102,0 -44.7644068,19.9322029 -45.0135593,44.5983049 v 0 0.415254 c 0,12.872882 5.4813563,24.5 14.2016953,32.722034 L 27.872881,82.19661 C 20.398305,75.137288 15.747458,65.254237 15.747458,54.208475 c 0,-21.261017 17.274576,-38.535594 38.535593,-38.535594 6.810169,0 13.288135,1.827119 18.852542,4.9 l 3.072882,-5.564406 C 69.89661,11.437288 62.671186,9.3610169 54.947458,9.2779661 Z"
   id="path36"
   inkscape:connector-curvature="0"
   style="stroke-width:0.83050847" />
</svg>