<?xml version="1.0" encoding="utf-8"?>
<!-- Generator: Adobe Illustrator 22.1.0, SVG Export Plug-In . SVG Version: 6.00 Build 0)  -->
<svg version="1.1" id="Layer_1" xmlns="http://www.w3.org/2000/svg" xmlns:xlink="http://www.w3.org/1999/xlink" x="0px" y="0px"
	 viewBox="0 0 512 512" style="enable-background:new 0 0 512 512;" xml:space="preserve">
<g>
	<title>genius</title>
	<g>
		<path d="M272.8,65.7c-6.8,0-13.5,0.2-20.3,0.4c-4.1-0.6-7,4.2-6.6,7.8c-0.7,19,0.4,37.9-0.3,56.9c-0.7,15.8-10.4,30-22.9,39
			c-9.4,6.5-21,8.1-31.3,12.4c2.3,14.7,8.1,29.2,19.8,38.8c22.3,19.8,60.5,16.2,78.2-8c17.7-20.1,8.5-48.2,11.3-72.2
			c5.4-9,17.6-2.5,24.7-9.2c-6.4-23.4-15.1-47.4-32.3-65.1C286.3,65.9,279.6,65.6,272.8,65.7L272.8,65.7z M77.5,65.9
			C41,98.7,23.7,151.3,33.9,199.3c7.3,38.5,31.6,73,64.7,93.8c2.5-4.3,4.3-8.9,1.7-13.7c-17.9-52.8-2.6-114.8,37.2-153.6
			c0.3-18.5,0.8-37.1-0.1-55.5l-3.5-4C115.1,65.3,96.3,66.3,77.5,65.9L77.5,65.9z M412.7,66.9l-3.8,6.7c5,17.6,11.3,34.9,13.5,53.1
			c10.9,66.5-7.5,137.2-49,190.1c-34.1,44.2-83.3,76.4-137.5,89.5c-49.9,12.4-103.4,8.4-151.3-10.2c-1.2,1.5-3.9,4.5-5.1,6
			c50,49.3,122.7,74.4,192.3,65.5c57.6-6.1,112.4-34.9,150.4-78.7c36.3-41,57.8-95.1,58.6-149.9C483.1,175.7,458.2,111.3,412.7,66.9
			z"/>
	</g>
</g>
</svg>
