<?xml version="1.0" encoding="UTF-8" standalone="no"?>
<svg
   id="Layer_1"
   viewBox="0 0 150 150"
   version="1.1"
   sodipodi:docname="7digital.svg"
   inkscape:version="1.3.2 (091e20e, 2023-11-25, custom)"
   xmlns:inkscape="http://www.inkscape.org/namespaces/inkscape"
   xmlns:sodipodi="http://sodipodi.sourceforge.net/DTD/sodipodi-0.dtd"
   xmlns="http://www.w3.org/2000/svg"
   xmlns:svg="http://www.w3.org/2000/svg">
  <sodipodi:namedview
     id="namedview3"
     pagecolor="#ffffff"
     bordercolor="#666666"
     borderopacity="1.0"
     inkscape:showpageshadow="2"
     inkscape:pageopacity="0.0"
     inkscape:pagecheckerboard="0"
     inkscape:deskcolor="#d1d1d1"
     inkscape:zoom="3.8325188"
     inkscape:cx="53.489627"
     inkscape:cy="77.886116"
     inkscape:window-width="1920"
     inkscape:window-height="1009"
     inkscape:window-x="-8"
     inkscape:window-y="-8"
     inkscape:window-maximized="1"
     inkscape:current-layer="Layer_1" />
  <defs
     id="defs3">
    <style
       id="style1">.cls-1{fill:#003ca0;}.cls-2{fill:none;}.cls-3{fill:url(#linear-gradient);}</style>
    <linearGradient
       id="linear-gradient"
       x1="95.52"
       y1="65.32"
       x2="72.58"
       y2="109.13"
       gradientUnits="userSpaceOnUse">
      <stop
         offset="0"
         stop-color="#3168b3"
         id="stop1" />
      <stop
         offset=".62"
         stop-color="#3191b3"
         id="stop2" />
      <stop
         offset="1"
         stop-color="#32a5b3"
         id="stop3" />
    </linearGradient>
  </defs>
  <path
     style="fill:#f9f9f9;stroke-width:0.292798"
     d="M 131.21713,0.0438363 H 18.78288 c -10.3345818,0 -18.73904138,8.4044602 -18.73904138,18.7390397 V 131.21713 c 0,10.33457 8.40445958,18.73903 18.73904138,18.73903 h 112.43425 c 10.33457,0 18.73903,-8.40446 18.73903,-18.73903 V 18.782876 c 0,-10.3345795 -8.40446,-18.7390397 -18.73903,-18.7390397 z"
     id="path2" />
  <g
     id="Layer_3">
    <path
       class="cls-2"
       d="M0,0H150V150H0V0Z"
       id="path3" />
  </g>
  <g
     id="g3"
     transform="translate(-2.8281277,-2.685)">
    <path
       id="seven_digital_shape2"
       class="cls-1"
       d="M 38.91,13.37 V 56.05 H 77.8 L 58.35,99.42 77.92,142 116.11,59.13 c 0.85,-1.85 0.85,-3.97 -0.01,-5.81 L 98.45,15.43 C 97.87,14.18 96.61,13.38 95.23,13.38 H 38.91 Z" />
    <path
       id="seven_digital_shape1"
       class="cls-3"
       d="M 77.81,56.05 58.36,99.42 77.93,142 116.12,59.13 c 0.45,-0.98 0.65,-2.03 0.62,-3.09 H 77.81 Z"
       style="fill:url(#linear-gradient)" />
  </g>
</svg>
