<?xml version="1.0" ?><svg enable-background="new 0 0 515.91 728.5" height="512" id="Layer_1" version="1.1" viewBox="0 0 512.00003 512" width="512" xml:space="preserve" xmlns="http://www.w3.org/2000/svg" xmlns:cc="http://creativecommons.org/ns#" xmlns:dc="http://purl.org/dc/elements/1.1/" xmlns:inkscape="http://www.inkscape.org/namespaces/inkscape" xmlns:rdf="http://www.w3.org/1999/02/22-rdf-syntax-ns#" xmlns:sodipodi="http://sodipodi.sourceforge.net/DTD/sodipodi-0.dtd" xmlns:svg="http://www.w3.org/2000/svg"><defs id="defs7"/><g id="g5184" transform="translate(2337.2503,-2673.4646)"><rect height="512" id="rect2984" rx="64" ry="64" style="fill:#639baa;fill-opacity:1;fill-rule:nonzero;stroke:none" width="512" x="-2337.2502" y="2673.4646"/><g id="g5178" transform="translate(531.49993,0)"><path d="m -2738.4584,2960.9765 -74.2918,132.9379 142.5315,0 74.3028,-132.9379 -142.5425,0 z" id="path5160" style="fill:#ffffff;fill-opacity:1;stroke:none"/><g id="g5162" style="fill:#ffffff;fill-opacity:1" transform="matrix(0.34051609,0,0,0.35174261,-1467.5839,2510.8901)"><path d="m -3291.2812,1272.9062 0,6.375 0,365.875 0,6.375 6.4062,0 41.6562,0 6.4063,0 0,-6.375 0,-15.4687 c 17.6951,18.2411 40.4424,27.8437 67.2187,27.8437 33.123,0 62.1378,-13.3926 85.5938,-39.2812 23.7636,-26.2281 35.3438,-63.1521 35.3438,-109.625 0,-19.7237 -2.7475,-38.3435 -8.2813,-55.8125 -5.5203,-17.4218 -13.2139,-32.5108 -23.1563,-45.0937 -10.0398,-12.7058 -22.9077,-22.6084 -38.3124,-29.5626 -15.3736,-6.9391 -31.7749,-10.4062 -48.9376,-10.4062 -25.5974,0 -47.9546,8.9166 -66.2187,25.9375 l 0,-114.4063 0,-6.375 -6.4063,0 -44.9062,0 -6.4062,0 z m 119.9374,144.5313 c 17.6629,0 32.1007,7.077 44.875,22.4063 12.3169,14.7807 19.125,38.7709 19.125,72.5312 0,32.8722 -6.9955,56.6632 -19.9687,72.125 l -0.031,0.062 c -13.3717,15.9139 -28.2386,23.25 -46,23.25 -22.0832,0 -38.6405,-9.8787 -51.9374,-31.625 -7.5397,-12.3235 -12.0313,-34.3651 -12.0313,-65.5625 0,-31.3315 6.9365,-54.3429 19.9687,-69.875 13.3835,-15.9507 28.2176,-23.3125 46,-23.3125 z" id="path5164" style="font-size:40px;font-style:normal;font-variant:normal;font-weight:normal;font-stretch:normal;text-indent:0;text-align:start;text-decoration:none;line-height:125%;letter-spacing:0px;word-spacing:0px;text-transform:none;direction:ltr;block-progression:tb;writing-mode:lr-tb;text-anchor:start;baseline-shift:baseline;color:#000000;fill:#ffffff;fill-opacity:1;fill-rule:nonzero;stroke:none;stroke-width:12.77737236;marker:none;visibility:visible;display:inline;overflow:visible;enable-background:accumulate;font-family:Sans;-inkscape-font-specification:Sans"/><path d="m -2893.0625,1367.75 c -23.7948,0 -46.0644,5.6292 -66.375,16.875 -20.5763,11.3909 -36.0565,28.7388 -46.0313,51.3125 -9.9074,22.4223 -14.7812,48.3656 -14.7812,77.6875 0,45.3154 11.3882,81.1214 34.7812,106.2812 23.2347,24.9882 54.4957,37.625 92.1563,37.625 30.2151,0 56.3645,-9.1814 77.4063,-27.4062 21.0969,-18.2714 34.1798,-43.7107 39.1874,-75.3125 l 1.0313,-6.5 -6.5,-0.8437 -44.1875,-5.75 -6.25,-0.8126 -0.9062,6.2813 c -3.0278,21.5127 -10.0405,36.5451 -20.4376,46.0625 -10.6446,9.7456 -23.5143,14.5625 -39.8437,14.5625 -20.397,0 -35.9798,-7.0892 -48.5313,-21.9375 -12.1469,-14.3689 -18.9687,-38.712 -18.9687,-73.5 0,-34.2467 7.014,-58.2797 19.6563,-72.7812 13.0317,-14.9487 29.2119,-22.1563 50.3124,-22.1563 13.6946,0 24.7577,3.9502 34.1876,11.9687 9.2935,7.9047 16.0594,19.8841 20,36.75 l 1.3437,5.7813 5.8437,-0.9063 43.6876,-6.75 6.5312,-1 -1.25,-6.5 c -5.3828,-27.9516 -17.9023,-50.2486 -37.4688,-65.8124 -19.5778,-15.5733 -44.7341,-23.2188 -74.5937,-23.2188 z" id="path5166" style="font-size:40px;font-style:normal;font-variant:normal;font-weight:normal;font-stretch:normal;text-indent:0;text-align:start;text-decoration:none;line-height:125%;letter-spacing:0px;word-spacing:0px;text-transform:none;direction:ltr;block-progression:tb;writing-mode:lr-tb;text-anchor:start;baseline-shift:baseline;color:#000000;fill:#ffffff;fill-opacity:1;fill-rule:nonzero;stroke:none;stroke-width:12.77737236;marker:none;visibility:visible;display:inline;overflow:visible;enable-background:accumulate;font-family:Sans;-inkscape-font-specification:Sans"/></g></g></g></svg>