<?xml version="1.0" encoding="UTF-8" standalone="no"?>
<!-- Generator: Adobe Illustrator 19.1.0, SVG Export Plug-In . SVG Version: 6.00 Build 0)  -->

<svg
   version="1.1"
   id="Layer_1"
   x="0px"
   y="0px"
   viewBox="0 0 1000 1000"
   enable-background="new 0 0 1000 1000"
   xml:space="preserve"
   sodipodi:docname="discogs.svg"
   inkscape:version="1.1.2 (b8e25be833, 2022-02-05)"
   xmlns:inkscape="http://www.inkscape.org/namespaces/inkscape"
   xmlns:sodipodi="http://sodipodi.sourceforge.net/DTD/sodipodi-0.dtd"
   xmlns="http://www.w3.org/2000/svg"
   xmlns:svg="http://www.w3.org/2000/svg"><defs
   id="defs37"><radialGradient
     cx="0"
     cy="0"
     gradientTransform="matrix(1388.0187,0,0,1402.119,6.2309005,976.79746)"
     gradientUnits="userSpaceOnUse"
     id="_Radial1"
     r="1"><stop
       offset="0"
       style="stop-color:#ff8100;stop-opacity:1"
       id="stop11" /><stop
       offset="0.19"
       style="stop-color:#ff7209;stop-opacity:1"
       id="stop13" /><stop
       offset="0.32"
       style="stop-color:#f55e16;stop-opacity:1"
       id="stop15" /><stop
       offset="0.48"
       style="stop-color:#d92938;stop-opacity:1"
       id="stop17" /><stop
       offset="1"
       style="stop-color:#9100ff;stop-opacity:1"
       id="stop19" /></radialGradient></defs><sodipodi:namedview
   id="namedview35"
   pagecolor="#ffffff"
   bordercolor="#666666"
   borderopacity="1.0"
   inkscape:pageshadow="2"
   inkscape:pageopacity="0.0"
   inkscape:pagecheckerboard="0"
   showgrid="false"
   inkscape:zoom="0.29380287"
   inkscape:cx="1979.2183"
   inkscape:cy="513.95005"
   inkscape:window-width="1920"
   inkscape:window-height="1017"
   inkscape:window-x="-8"
   inkscape:window-y="-8"
   inkscape:window-maximized="1"
   inkscape:current-layer="Layer_1" />



<rect
   width="995.75452"
   height="995.75452"
   rx="29.172499%"
   fill="#1B1817"
   id="rect2"
   style="fill:#333333;stroke-width:1.94483"
   x="3.9277928"
   y="3.9278014" /><path
   d="m 1000.0484,248.95912 c 0,-138.59042 -111.25752,-250.9789631 -248.45214,-250.9789631 -151.75947,0 -345.15357,0 -496.91289,0 -137.19462,0 -248.4523192,112.3885431 -248.4523192,250.9789631 0,153.29801 0,348.65996 0,501.95796 0,138.59043 111.2576992,250.97892 248.4523192,250.97892 151.75932,0 345.15342,0 496.91289,0 137.19462,0 248.45214,-112.38849 248.45214,-250.97892 0,-153.298 0,-348.65995 0,-501.95796 z"
   style="clip-rule:evenodd;fill:#333333;fill-rule:evenodd;stroke-width:49.9428;stroke-linejoin:round;stroke-miterlimit:1.41421"
   id="path3"
   inkscape:connector-curvature="0" /><g
   id="g1270"
   transform="matrix(2.2468533,0,0,2.2468533,-98.355818,-59.63556)"><path
     fill="#333333"
     d="m 217.98028,249.87335 c 0,-27.35072 22.18098,-49.5317 49.49677,-49.5317 v 0 c 27.35072,0 49.49677,22.14605 49.49677,49.5317 v 0 c 0,27.35072 -22.18098,49.49677 -49.49677,49.49677 v 0 c -27.31579,0 -49.49677,-22.14605 -49.49677,-49.49677 z m 2.1657,0 c 0.0699,26.16308 21.20292,47.29614 47.33107,47.33107 v 0 c 26.12815,0 47.366,-21.20292 47.366,-47.33107 v 0 c -0.0349,-26.16308 -21.20292,-47.33107 -47.366,-47.366 v 0 c -26.12815,0 -47.33107,21.20292 -47.33107,47.366 z"
     id="path2"
     style="fill:#ffffff;stroke-width:0.349307" /><path
     fill="#333333"
     d="m 275.33645,249.87335 c 0,4.29647 -3.528,7.78954 -7.82447,7.78954 -4.29647,0 -7.82447,-3.49307 -7.82447,-7.78954 0,-4.3314 3.49307,-7.82447 7.82447,-7.82447 4.29647,0 7.82447,3.49307 7.82447,7.82447 z"
     id="path4"
     style="fill:#ffffff;stroke-width:0.349307" /><path
     fill="none"
     d="m 267.51198,185.28653 c -35.69915,0 -64.58682,28.9226 -64.58682,64.58682 0,18.23381 7.57995,34.65123 19.73583,46.38794 -0.0699,-0.0699 -0.13972,-0.13972 -0.20958,-0.20959 l -16.83659,18.19889 c 5.86835,5.65877 12.50518,10.51413 19.77076,14.42637 l 12.15588,-21.65702 v 0 c 8.97718,4.71564 19.17694,7.4053 30.00545,7.4053 35.66422,0 64.58682,-28.9226 64.58682,-64.58682 0,-17.25576 -6.81148,-32.9047 -17.81464,-44.46675 l 16.94137,-18.23382 c -5.76356,-5.83342 -12.29559,-10.89837 -19.45638,-14.98526 l -11.94629,21.79675 c -9.57101,-5.48412 -20.57417,-8.66281 -32.34581,-8.66281 z"
     id="path6"
     style="stroke-width:0.349307" /><path
     fill="none"
     d="m 184.13245,337.47949 -17.18589,18.58312 c 9.15184,8.6628 19.35159,16.1729 30.49448,22.25084 l 12.40039,-22.07619 c -9.36142,-5.09988 -17.9893,-11.45726 -25.70898,-18.75777 z"
     id="path8"
     style="stroke-width:0.349307" /><path
     fill="none"
     d="m 352.74283,163.97881 17.22082,-18.54819 c -9.18676,-9.01211 -19.56118,-16.83658 -30.84378,-23.19396 l -12.15588,22.21591 c 9.43128,5.37932 18.09409,11.94629 25.77884,19.52624 z"
     id="path10"
     style="stroke-width:0.349307" /><path
     fill="none"
     d="m 333.39124,184.7975 17.15096,-18.4434 c -7.47517,-7.44023 -15.92839,-13.83255 -25.15009,-19.07215 l -12.08601,22.07619 c 7.37037,4.22661 14.14692,9.43128 20.08514,15.43936 z"
     id="path12"
     style="stroke-width:0.349307" /><path
     fill="none"
     d="m 203.41419,316.62587 -17.0811,18.47833 c 7.51009,7.16079 15.92838,13.34352 25.11515,18.33861 l 12.33053,-21.93647 c -7.47516,-4.01703 -14.32158,-9.04704 -20.36458,-14.88047 z"
     id="path14"
     style="stroke-width:0.349307" /><path
     fill="#333333"
     d="m 178.08945,249.87335 c 0,25.28981 10.54906,48.13447 27.49044,64.41217 l 16.83658,-18.19889 c 0.0699,0.0699 0.13973,0.13973 0.20959,0.20959 -12.15588,-11.73671 -19.73583,-28.18906 -19.73583,-46.38794 0,-35.66422 28.88767,-64.58682 64.58682,-64.58682 11.77164,0 22.7748,3.17869 32.27594,8.69774 l 11.94629,-21.79675 c -13.06407,-7.47516 -28.15412,-11.7367 -44.22223,-11.7367 -49.25226,-0.0699 -89.3876,40.06548 -89.3876,89.3876 z"
     id="path16"
     style="fill:#ffffff;stroke-width:0.349307" /><path
     fill="#333333"
     d="m 332.0988,249.87335 c 0,35.66422 -28.9226,64.58682 -64.58682,64.58682 -10.82851,0 -21.02827,-2.68966 -30.00545,-7.4053 v 0 l -12.15588,21.65702 c 12.57505,6.74162 26.93155,10.58399 42.16133,10.58399 49.32211,0 89.42253,-40.10042 89.42253,-89.42253 0,-24.41654 -9.85045,-46.56259 -25.74391,-62.70057 l -16.90645,18.19889 c 11.00317,11.59698 17.81465,27.24592 17.81465,44.50168 z"
     id="path18"
     style="fill:#ffffff;stroke-width:0.349307" /><path
     fill="#333333"
     d="m 149.72574,249.87335 c 0,33.49852 14.07706,63.78342 36.60735,85.26578 l 17.0811,-18.47833 c -17.57013,-16.87151 -28.53837,-40.55451 -28.53837,-66.78745 0,-51.10358 41.56751,-92.63616 92.63616,-92.63616 16.627,0 32.24101,4.4362 45.75919,12.15588 l 12.08601,-22.07619 c -17.11603,-9.6758 -36.85186,-15.2647 -57.8452,-15.2647 -64.93613,0 -117.78624,52.85011 -117.78624,117.82117 z"
     id="path20"
     style="fill:#ffffff;stroke-width:0.349307" /><path
     fill="#333333"
     d="m 360.18306,249.87335 c 0,51.10358 -41.5675,92.63615 -92.63615,92.63615 -15.8236,0 -30.70407,-3.98209 -43.76814,-11.00316 l -12.33053,21.93647 c 16.69687,9.08197 35.80395,14.21678 56.09867,14.21678 64.97106,0 117.82117,-52.85011 117.82117,-117.82117 0,-32.59032 -13.30859,-62.14168 -34.79095,-83.51925 l -17.15096,18.4434 c 16.52221,16.76672 26.75689,39.75111 26.75689,65.11078 z"
     id="path22"
     style="fill:#ffffff;stroke-width:0.349307" /><path
     fill="#333333"
     d="m 388.54677,249.87335 c 0,66.75252 -54.28227,121.03479 -121.03479,121.03479 -20.85362,0 -40.51959,-5.30946 -57.67055,-14.63595 l -12.40039,22.07619 c 20.81868,11.3874 44.71127,17.88451 70.07094,17.88451 80.68986,0 146.35954,-65.66968 146.35954,-146.35954 0,-40.86889 -16.83659,-77.82555 -43.90787,-104.40779 l -17.22082,18.54818 c 22.11112,21.93647 35.80394,52.29123 35.80394,85.85961 z"
     id="path24"
     style="fill:#ffffff;stroke-width:0.349307" /><path
     fill="#333333"
     d="m 121.15244,249.87335 c 0,41.77709 17.63999,79.50222 45.79412,106.18926 l 17.18589,-18.58312 C 160.97341,315.4033 146.47718,284.315 146.47718,249.87335 c 0,-66.75252 54.28227,-121.0348 121.0348,-121.0348 21.58716,0 41.84695,5.6937 59.41708,15.64895 l 12.15588,-22.21591 c -21.16799,-11.9463 -45.58454,-18.75778 -71.57296,-18.75778 -80.68987,-0.0349 -146.35954,65.63474 -146.35954,146.35954 z"
     id="path26"
     style="fill:#ffffff;stroke-width:0.349307" /><path
     fill="#333333"
     d="m 388.96594,125.03111 -16.80165,18.05916 c 27.70002,27.17607 44.95578,64.97106 44.95578,106.78308 0,82.47133 -67.10183,149.57316 -149.57316,149.57316 -25.95349,0 -50.37004,-6.63683 -71.64282,-18.30368 l -12.43532,22.14605 c 24.87064,13.6579 53.409,21.44744 83.76376,21.48237 96.4436,0 174.68832,-78.20979 174.68832,-174.65339 -0.0699,-49.0776 -20.36459,-93.3697 -52.95491,-125.08675 z"
     id="path28"
     style="fill:#ffffff;stroke-width:0.349307" /><g
     id="g1179"
     style="fill:#ffffff"><g
       id="g1175"
       style="fill:#ffffff"><path
         fill="#333333"
         d="m 117.93882,249.87335 c 0,-82.50626 67.10183,-149.60809 149.57316,-149.60809 26.54731,0 51.48782,6.98613 73.14484,19.17694 l 11.8415,-21.657019 C 328.04684,84.022495 299.96258,75.988439 270.02699,75.499409 H 267.1976 C 171.31289,75.674063 93.627068,152.76607 92.579148,248.47612 v 0 1.67667 c 0.104792,50.05566 21.202922,95.11624 54.945952,126.93808 l 17.25576,-18.65298 C 135.96305,331.15703 117.93882,292.55864 117.93882,249.87335 Z"
         id="path30"
         style="fill:#ffffff;stroke-width:0.349307" /></g></g></g></svg>
