<svg class="svg-icon" style="width: 1em; height: 1em;vertical-align: middle;fill: currentColor;overflow: hidden;" viewBox="0 0 1024 1024" version="1.1" xmlns="http://www.w3.org/2000/svg"><path d="M981.333333 0H42.666667a42.666667 42.666667 0 0 0-42.666667 42.666667v938.666666a42.666667 42.666667 0 0 0 42.666667 42.666667h938.666666a42.666667 42.666667 0 0 0 42.666667-42.666667V42.666667a42.666667 42.666667 0 0 0-42.666667-42.666667z" fill="#E8E8E8" /><path d="M298.666667 512m-170.666667 0a170.666667 170.666667 0 1 0 341.333333 0 170.666667 170.666667 0 1 0-341.333333 0Z" fill="#005FDF" /><path d="M725.333333 512m-170.666666 0a170.666667 170.666667 0 1 0 341.333333 0 170.666667 170.666667 0 1 0-341.333333 0Z" fill="#FF0083" /></svg>