<?xml version="1.0" encoding="UTF-8" standalone="no"?>
<svg
   role="img"
   viewBox="0 0 24 24"
   version="1.1"
   id="svg6"
   sodipodi:docname="genius.svg"
   inkscape:version="1.1.2 (b8e25be833, 2022-02-05)"
   xmlns:inkscape="http://www.inkscape.org/namespaces/inkscape"
   xmlns:sodipodi="http://sodipodi.sourceforge.net/DTD/sodipodi-0.dtd"
   xmlns="http://www.w3.org/2000/svg"
   xmlns:svg="http://www.w3.org/2000/svg">
  <defs
     id="defs10" />
  <sodipodi:namedview
     id="namedview8"
     pagecolor="#ffffff"
     bordercolor="#666666"
     borderopacity="1.0"
     inkscape:pageshadow="2"
     inkscape:pageopacity="0.0"
     inkscape:pagecheckerboard="0"
     showgrid="false"
     inkscape:zoom="17.3125"
     inkscape:cx="19.783393"
     inkscape:cy="12.592058"
     inkscape:window-width="1920"
     inkscape:window-height="1017"
     inkscape:window-x="-8"
     inkscape:window-y="-8"
     inkscape:window-maximized="1"
     inkscape:current-layer="svg6" />
  <title
     id="title2">Genius</title>
  <path
     style="fill:#333333;stroke-width:0.0467828"
     d="M 20.982302,0.02359827 H 3.0176992 c -1.6512469,0 -2.99410093,1.34285393 -2.99410093,2.99410043 V 20.982302 c 0,1.651247 1.34285403,2.9941 2.99410093,2.9941 H 20.982302 c 1.651247,0 2.9941,-1.342853 2.9941,-2.9941 V 3.0176987 c 0,-1.6512465 -1.342853,-2.99410043 -2.9941,-2.99410043 z"
     id="path2" />
  <path
     d="m 2.9410637,8.0947021 c 0,1.6336282 0.59638,3.1200489 1.635893,4.1595619 0.2966802,0.29668 0.5933604,0.445398 0.8907954,0.742078 h 0.1472078 c 0.1487175,0 0.1479626,-0.147963 0.1479626,-0.147963 -0.2966802,-0.594115 -0.4438879,-1.336193 -0.4438879,-2.079026 0,-1.6336281 0.741323,-3.2680112 1.7815908,-4.3075243 V 4.0868776 c 0,-0.1487176 -0.1487175,-0.1479627 -0.1487175,-0.1479627 H 4.7249193 C 3.5366888,5.1271454 2.9410637,6.4618287 2.9410637,8.0947021 Z M 4.872882,17.599037 c 1.7815908,1.633628 4.0085794,2.523668 6.68172,2.523668 5.346283,0 9.504335,-4.304504 9.504335,-9.501314 0,-2.5244242 -1.040268,-4.9008852 -2.673897,-6.5345134 h -0.147962 c 0,-0.1487176 -0.147963,0 -0.147963,0 0.445398,1.1882305 0.742078,2.3757061 0.742078,3.7126542 0,5.4942452 -4.455487,10.0954302 -10.0984492,10.0954302 -1.3361931,0 -2.5244236,-0.29668 -3.7118992,-0.742078 -0.1487175,0 -0.1479626,0.150227 -0.1479626,0.29819 z M 9.3268591,8.5416096 c 0,0.4453978 0.29819,0.8892856 0.5948701,1.1859658 H 10.217655 C 12.890041,10.618371 13.782346,9.5818775 13.782346,8.393647 V 6.757754 c 0,-0.1479626 0.147962,-0.1479626 0.147962,-0.1479626 h 0.594116 c 0.148717,0 0.147962,-0.1479627 0.147962,-0.1479627 -0.147962,-0.8907954 -0.59185,-1.780081 -1.185965,-2.5229138 h -1.783856 c 0,-0.1487175 -0.147963,0 -0.147963,0.1479627 v 2.2269885 c 0,1.1882306 -0.890795,2.079026 -2.0790254,2.2277435 0,-0.1487175 -0.1479626,0 -0.1479626,0 z"
     id="path4"
     style="fill:#ffff64;fill-opacity:1;stroke-width:0.754911" />
</svg>
