<?xml version="1.0" encoding="UTF-8" standalone="no"?>
<svg
   xmlns:dc="http://purl.org/dc/elements/1.1/"
   xmlns:cc="http://creativecommons.org/ns#"
   xmlns:rdf="http://www.w3.org/1999/02/22-rdf-syntax-ns#"
   xmlns:svg="http://www.w3.org/2000/svg"
   xmlns="http://www.w3.org/2000/svg"
   xmlns:sodipodi="http://sodipodi.sourceforge.net/DTD/sodipodi-0.dtd"
   xmlns:inkscape="http://www.inkscape.org/namespaces/inkscape"
   height="100%"
   style="fill-rule:evenodd;clip-rule:evenodd;stroke-linejoin:round;stroke-miterlimit:1.41421;"
   version="1.1"
   viewBox="0 0 24 24"
   width="100%"
   xml:space="preserve"
   id="svg24"
   sodipodi:docname="instagram.svg"
   inkscape:version="0.92.1 r15371"><metadata
     id="metadata28"><rdf:RDF><cc:Work
         rdf:about=""><dc:format>image/svg+xml</dc:format><dc:type
           rdf:resource="http://purl.org/dc/dcmitype/StillImage" /></cc:Work></rdf:RDF></metadata><sodipodi:namedview
     pagecolor="#ffffff"
     bordercolor="#666666"
     borderopacity="1"
     objecttolerance="10"
     gridtolerance="10"
     guidetolerance="10"
     inkscape:pageopacity="0"
     inkscape:pageshadow="2"
     inkscape:window-width="1920"
     inkscape:window-height="1017"
     id="namedview26"
     showgrid="false"
     inkscape:zoom="13.906433"
     inkscape:cx="10.680967"
     inkscape:cy="13.062738"
     inkscape:window-x="-8"
     inkscape:window-y="-8"
     inkscape:window-maximized="1"
     inkscape:current-layer="svg24" /><rect
     height="28.602186"
     id="Artboard10"
     style="fill:none;stroke-width:1.18575025"
     width="28.31455"
     x="-2.157275"
     y="-2.3010933" /><path
     d="m 23.797729,6.0412111 c 0,-3.2904432 -2.641511,-5.95878881 -5.898864,-5.95878881 -3.603027,0 -8.1947031,0 -11.7977296,0 -3.257353,0 -5.89886451,2.66834561 -5.89886451,5.95878881 0,3.6396283 0,8.2779499 0,11.9175779 0,3.290443 2.64151151,5.958789 5.89886451,5.958789 3.6030265,0 8.1947026,0 11.7977296,0 3.257353,0 5.898864,-2.668346 5.898864,-5.958789 0,-3.639628 0,-8.2779496 0,-11.9175779 z"
     style="fill:url(#_Radial1);stroke-width:1.18575025"
     id="path3"
     inkscape:connector-curvature="0" /><path
     d="m 15.489768,3.6636544 c 2.466905,0.023835 4.737968,2.1630403 4.762744,4.8111261 0.0083,2.3501465 0.0083,4.7002925 0,7.0504385 -0.0236,2.482432 -2.141288,4.7861 -4.762744,4.811127 -2.326512,0.0083 -4.653024,0.0083 -6.9795363,0 -2.4680849,-0.02384 -4.737968,-2.163041 -4.7627432,-4.811127 -0.00826,-2.350146 -0.00826,-4.700292 0,-7.0504385 0.022416,-2.494349 2.135389,-4.7860992 4.7627432,-4.8111261 2.3265123,-0.00834 4.6530243,-0.00834 6.9795363,0 z M 8.5420856,4.7898655 c -1.9147714,0.00596 -3.6608353,1.682762 -3.6797117,3.6920656 -0.00708,2.3453789 -0.00708,4.6907589 0,7.0361379 0.017697,1.912771 1.6375248,3.672997 3.6549365,3.692066 2.3217926,0.0071 4.6435866,0.0071 6.9653796,0 1.898254,-0.01788 3.63606,-1.65416 3.654936,-3.692066 0.0071,-2.345379 0.0071,-4.690759 0,-7.0361379 -0.0177,-1.9258806 -1.669379,-3.6729975 -3.654936,-3.6920656 -2.313535,-0.00715 -4.62707,0 -6.9406044,0 z"
     style="fill:#ffffff;fill-rule:nonzero;stroke-width:1.18575025"
     id="path5"
     inkscape:connector-curvature="0" /><path
     d="m 12.028315,7.8288478 c 1.908872,0.017876 3.68797,1.5051901 4.037182,3.4108112 0.248933,1.358603 -0.220617,2.831616 -1.211626,3.787406 -1.103088,1.060664 -2.810219,1.439643 -4.273138,0.898585 C 8.9455679,15.321429 7.7952893,13.580271 7.8719746,11.816469 7.9651766,9.7094416 9.8079819,7.8359983 12,7.8288478 c 0.0094,0 0.01888,0 0.02831,0 z m -0.04719,1.1285946 c -1.362638,0.013109 -2.6474108,1.0570896 -2.9305563,2.4133096 -0.2866848,1.371713 0.4943249,2.893588 1.7767383,3.440605 1.40039,0.598262 3.208982,-0.0727 3.884992,-1.469438 0.699604,-1.443218 0.04011,-3.4036599 -1.436964,-4.1008382 -0.402303,-0.1894895 -0.849437,-0.2848301 -1.29421,-0.2836384 z"
     style="fill:#ffffff;fill-rule:nonzero;stroke-width:1.18575025"
     id="path7"
     inkscape:connector-curvature="0" /><path
     d="m 17.308978,7.5034979 c 0,-0.2300092 -0.09084,-0.4504844 -0.251292,-0.6125635 C 16.897237,6.7288554 16.678979,6.63709 16.451283,6.63709 c -0.0177,0 -0.03657,0 -0.05427,0 -0.227697,0 -0.445955,0.091765 -0.606404,0.2538444 -0.160449,0.1620791 -0.251291,0.3825543 -0.251291,0.6125635 0,0.00953 0,0.017876 0,0.027411 0,0.2371598 0.0932,0.4647855 0.25955,0.6316316 0.165168,0.1680378 0.390505,0.2621867 0.625279,0.2621867 0,0 0,0 0,0 0.488426,0 0.88483,-0.4004306 0.88483,-0.8938183 0,-0.00953 0,-0.017876 1e-6,-0.027411 z"
     style="fill:#ffffff;stroke-width:1.18575025"
     id="path9"
     inkscape:connector-curvature="0" /><defs
     id="defs22"><radialGradient
       cx="0"
       cy="0"
       gradientTransform="matrix(32.954596,0,0,33.289371,0.2022709,23.321699)"
       gradientUnits="userSpaceOnUse"
       id="_Radial1"
       r="1"><stop
         offset="0"
         style="stop-color:#ff8100;stop-opacity:1"
         id="stop11" /><stop
         offset="0.19"
         style="stop-color:#ff7209;stop-opacity:1"
         id="stop13" /><stop
         offset="0.32"
         style="stop-color:#f55e16;stop-opacity:1"
         id="stop15" /><stop
         offset="0.48"
         style="stop-color:#d92938;stop-opacity:1"
         id="stop17" /><stop
         offset="1"
         style="stop-color:#9100ff;stop-opacity:1"
         id="stop19" /></radialGradient></defs></svg>