<?xml version="1.0" encoding="UTF-8" standalone="no"?>
<svg
   width="1453px"
   height="1453px"
   viewBox="0 -373 1453 1453"
   version="1.1"
   id="svg4"
   sodipodi:docname="tidal.svg"
   inkscape:version="1.1.2 (b8e25be833, 2022-02-05)"
   xmlns:inkscape="http://www.inkscape.org/namespaces/inkscape"
   xmlns:sodipodi="http://sodipodi.sourceforge.net/DTD/sodipodi-0.dtd"
   xmlns="http://www.w3.org/2000/svg"
   xmlns:svg="http://www.w3.org/2000/svg">
  <defs
     id="defs8" />
  <sodipodi:namedview
     id="namedview6"
     pagecolor="#ffffff"
     bordercolor="#666666"
     borderopacity="1.0"
     inkscape:pageshadow="2"
     inkscape:pageopacity="0.0"
     inkscape:pagecheckerboard="0"
     showgrid="false"
     inkscape:zoom="0.28596008"
     inkscape:cx="781.57762"
     inkscape:cy="751.85319"
     inkscape:window-width="1920"
     inkscape:window-height="1017"
     inkscape:window-x="-8"
     inkscape:window-y="-8"
     inkscape:window-maximized="1"
     inkscape:current-layer="svg4" />
  <path
     style="fill:#f9f9f9;stroke-width:2.80997"
     d="M 1266.0135,-365.8514 H 186.98645 c -99.180566,0 -179.8378345,80.65727 -179.8378345,179.83785 V 893.01352 c 0,99.18058 80.6572685,179.83788 179.8378345,179.83788 H 1266.0135 c 99.1806,0 179.8379,-80.6573 179.8379,-179.83788 V -186.01355 c 0,-99.18058 -80.6573,-179.83785 -179.8379,-179.83785 z"
     id="path2-2" />
  <path
     stroke="#000000"
     stroke-width="0.0750021"
     d="m 623.01308,71.444271 h 0.63832 c 4.86875,5.585262 10.37263,10.532208 15.55894,15.878101 l 35.26694,35.266938 v 0.63832 c -17.07334,16.99515 -34.07009,34.14989 -51.14504,51.14504 -17.15473,-17.07494 -34.22968,-34.22968 -51.38441,-51.30462 0.87928,-1.67558 2.55326,-2.79263 3.8299,-4.14905 15.71852,-15.8781 31.67641,-31.516838 47.23535,-47.474729 z m 102.9284,0 h 0.63832 c 0.48033,0.718105 0.95747,1.356421 1.59579,1.994736 16.51641,16.356838 32.79506,32.953043 49.46946,49.230093 -0.39895,0.95747 -1.27663,1.59579 -1.99474,2.3139 -16.51482,16.43662 -32.95304,32.95304 -49.46946,49.38967 -17.23452,-16.99515 -34.14989,-34.30947 -51.4642,-51.22483 16.75579,-17.47389 34.38926,-34.309468 51.22483,-51.703569 z m 102.9284,0 h 0.63832 c 3.19158,3.829894 6.94168,7.101261 10.37263,10.691787 12.92589,12.925891 25.77359,25.771992 38.69788,38.697882 0.63991,0.71811 1.67718,1.35642 1.91495,2.39369 -17.31431,16.83557 -34.0701,34.30946 -51.4642,51.14504 l -49.07052,-49.07052 c -0.79789,-0.87768 -1.83515,-1.516 -2.2341,-2.63305 8.69705,-8.45768 17.15473,-17.15473 25.77199,-25.692204 8.45769,-8.537471 17.07495,-16.835575 25.37305,-25.532625 z M 675.43476,225.03897 c 16.83557,-16.83557 33.75094,-33.67115 50.58651,-50.58651 l 0.71651,0.31916 c 16.91537,16.99515 33.83073,33.99031 50.90567,50.82588 -0.55693,1.27663 -1.75377,1.99474 -2.63305,3.032 -12.28598,12.20779 -24.57515,24.57515 -36.86273,36.78294 -3.98947,3.82989 -7.81936,8.13852 -11.88703,11.72905 -5.82463,-5.2661 -11.17052,-11.17052 -16.83717,-16.59621 -11.48809,-11.48968 -22.89798,-22.97936 -34.46745,-34.38925 0.15958,-0.31916 0.31916,-0.7979 0.47874,-1.11706 z M 146.82961,446.37493 h 153.51491 c 0.0798,12.28598 0.0798,24.57515 0,36.78294 h -55.29409 v 145.21681 c -0.0798,2.39368 0.15958,4.78737 -0.31916,7.18105 h -42.68736 c 0.15958,-50.82589 0.0798,-101.57198 0.0798,-152.39786 h -55.29409 z m 281.57699,0 c 14.3621,0 28.7242,0 43.08631,0.0798 -0.0798,63.03367 0.15957,126.06734 -0.15958,189.10101 h -42.84694 c -0.23937,-16.75579 -0.0798,-33.51157 -0.15958,-50.26736 0.0798,-46.27788 0,-92.55577 0.0798,-138.91344 z m 759.6754,0 c 14.3621,0 28.7242,0 43.0863,0.0798 v 151.12123 c 24.9741,0.15798 50.028,0.0798 75.0021,0.0798 v 37.89999 h -118.0086 c -0.2394,-63.03367 0,-126.06734 -0.08,-189.1808 z m -405.01127,63.43262 c -4.30863,-14.84244 -12.68652,-28.32526 -24.33578,-38.45852 -15.39937,-13.644 -35.50631,-21.06442 -55.69304,-23.69747 -11.40989,-1.67558 -22.97936,-1.19684 -34.46745,-1.27663 H 617.589 c -0.95748,0 -1.99474,0.0798 -2.95221,0.23937 0.23936,62.47514 0,124.95028 0.15958,187.42383 -0.0798,0.39895 -0.15958,1.11706 -0.23937,1.516 h 73.72386 c 6.62412,-1.19684 13.40622,-1.11705 19.94736,-2.55326 22.34105,-4.06926 43.80441,-15.16 58.40589,-32.79347 10.77157,-12.76631 17.3941,-28.80559 19.54841,-45.32041 1.91495,-15.07861 1.11705,-30.55776 -3.11179,-45.07944 z m -48.59178,62.7943 c -5.34589,8.53747 -13.24505,15.31957 -22.42083,19.46862 -8.29811,3.8299 -17.47389,5.58527 -26.57149,5.82464 -9.57473,0.0814 -19.14947,0 -28.7242,0.0814 -0.47874,-10.61359 -0.0798,-21.22559 -0.23937,-31.83599 0,-27.68694 0,-55.2941 0.0814,-82.98104 h 29.60189 c 14.84084,0.31916 29.92105,5.42569 40.69263,15.95789 9.65452,9.33537 15.0802,22.50063 15.95789,35.82547 0.87768,13.00409 -1.516,26.4885 -8.3779,37.65903 z m 320.83345,18.43136 c -18.0325,-43.80441 -35.9851,-87.68861 -54.1755,-131.41323 -1.67717,-4.38842 -3.43174,-8.85663 -5.42647,-13.08547 -14.84164,-0.23937 -29.68088,-0.23937 -44.52332,0 -25.37305,61.03893 -50.74609,122.07786 -76.11754,183.03701 -0.79789,1.99474 -1.75537,3.90968 -2.15431,5.98421 h 45.87892 c 4.548,-12.60674 9.41515,-25.05389 13.96315,-37.66062 26.01137,-0.39895 52.10253,-0.0798 78.19367,-0.15958 1.3564,-0.39895 1.7554,1.03886 2.0745,1.99473 4.3885,11.96842 8.8583,23.85705 13.1653,35.82547 h 47.3167 c -5.748,-15.00042 -12.1312,-29.68168 -18.1951,-44.52252 z M 944.88374,564.30374 c -0.23937,-1.67717 0.7979,-3.11178 1.27663,-4.62778 8.69706,-22.74 17.63507,-45.47999 26.25074,-68.21999 0.15957,-0.0814 0.47873,-0.15958 0.63831,-0.15958 9.01621,23.93684 18.192,47.79229 27.28798,71.72913 0,0.31915 0.08,0.95747 0.08,1.27822 -18.51115,-0.15957 -37.0223,-0.15957 -55.53346,0 z"
     id="path2" />
</svg>
